<svg version="1.1" id="Layer_1" xmlns="http://www.w3.org/2000/svg" xmlns:xlink="http://www.w3.org/1999/xlink" x="0px" y="0px"
	 width="3714.371px" height="407.404px" preserveaspectratio="xMinYMin">
<g>
	<rect x="-112" y="371.404" fill="#30C29E" width="1361" height="36"/>

		<rect x="-152.994" y="145.397" transform="matrix(-0.9424 0.3344 -0.3344 -0.9424 264.8264 266.2002)" fill="#30C29E" width="524.984" height="21"/>
	<path fill="#30C29E" d="M384,20.404H250l-17,387h175L384,20.404z M304,139.404h20v49h-20V139.404z M334,327.404h-41v-66.001h41
		V327.404z M335,240.403h-41v-33h41V240.403z"/>

		<rect x="220.994" y="6.415" transform="matrix(-0.9976 -0.0689 0.0689 -0.9976 626.7939 63.4493)" fill="#30C29E" width="186.995" height="28.999"/>
	<path fill="none" stroke="#30C29E" stroke-width="30" stroke-miterlimit="10" d="M360.346,48.233
		c0,55.273,475.742,263.249,837.223,263.249"/>
</g>
<g>
	<path class="house" fill="#43D1AF" d="M635.883,226.258L552,188.404v219h154v-219L635.883,226.258z M616,321.404h-39v-57.001h39V321.404z"/>
	<path class="house" fill="#1D846C" d="M945.383,226.258L861,188.404v219h155v-219L945.383,226.258z M992,339.404h-39v-57.001h39V339.404z"/>
	<path class="house" fill="#3FE1E8" d="M1100.383,226.258L1016,188.404v219h155v-219L1100.383,226.258z M1152,332.404h-39v-57.001h39V332.404z"/>
	<path class="house" fill="#CE5BD9" d="M1254.883,226.258L1171,188.404v219h154v-219L1254.883,226.258z M1239,326.404h-39v-57.001h39V326.404z"/>
	<path class="house" fill="#3CADDE" d="M1409.385,226.258L1325,188.404v219h155v-219L1409.385,226.258z M1388,336.404h-39v-57.001h39V336.404z"/>
	<path class="house" fill="#3FE1E8" d="M1564.383,226.258L1480,188.404v219h155v-219L1564.383,226.258z M1549,326.404h-39v-57.001h39V326.404z"/>
	<path class="house" fill="#3FE890" d="M1719.383,226.258L1635,188.404v219h155v-219L1719.383,226.258z M1732,333.404h-39v-57.001h39V333.404z"/>
	<path class="house" fill="#3CDE5B" d="M1874.883,226.258L1790,188.404v219h156v-219L1874.883,226.258z M1868,326.404h-39v-57.001h39V326.404z"/>
	<path class="house" fill="#30C29E" d="M790.383,226.258L706,188.404v219h155v-219L790.383,226.258z M777,323.404h-39v-57.001h39V323.404z"/>
</g>
<g>
	<path class="house" fill="#43D1AF" d="M2029.883,226.257L1946,188.403v219.001h154V188.403L2029.883,226.257z M2010,321.404h-39v-57.002h39
		V321.404z"/>
	<path class="house" fill="#1D846C" d="M2339.383,226.257L2255,188.403v219.001h155V188.403L2339.383,226.257z M2386,339.404h-39v-57.002h39
		V339.404z"/>
	<path fill="#3FE1E8" d="M2494.383,226.257L2410,188.403v219.001h155V188.403L2494.383,226.257z M2546,332.404h-39v-57.002h39
		V332.404z"/>
	<path fill="#CE5BD9" d="M2648.883,226.257L2565,188.403v219.001h154V188.403L2648.883,226.257z M2633,326.404h-39v-57.002h39
		V326.404z"/>
	<path fill="#3CADDE" d="M2803.385,226.257L2719,188.403v219.001h155V188.403L2803.385,226.257z M2782,336.404h-39v-57.002h39
		V336.404z"/>
	<path fill="#3FE1E8" d="M2958.383,226.257L2874,188.403v219.001h155V188.403L2958.383,226.257z M2943,326.404h-39v-57.002h39
		V326.404z"/>
	<path fill="#30C29E" d="M2184.383,226.257L2100,188.403v219.001h155V188.403L2184.383,226.257z M2171,323.404h-39v-57.002h39
		V323.404z"/>
</g>
<g>
	<path fill="#CE5BD9" d="M-703.117,226.257L-787,188.403v219.001h154V188.403L-703.117,226.257z M-719,326.404h-39v-57.002h39
		V326.404z"/>
	<path fill="#3CADDE" d="M-548.615,226.257L-633,188.403v219.001h155V188.403L-548.615,226.257z M-570,336.404h-39v-57.002h39
		V336.404z"/>
	<path fill="#3FE1E8" d="M-393.617,226.257L-478,188.403v219.001h155V188.403L-393.617,226.257z M-409,326.404h-39v-57.002h39
		V326.404z"/>
	<path fill="#3FE890" d="M-238.617,226.257L-323,188.403v219.001h155V188.403L-238.617,226.257z M-226,333.404h-39v-57.002h39
		V333.404z"/>
	<path fill="#3CDE5B" d="M-83.117,226.257L-168,188.403v219.001h156V188.403L-83.117,226.257z M-90,326.404h-39v-57.002h39V326.404z
		"/>
</g>
</svg>
